<svg xmlns="http://www.w3.org/2000/svg" xmlns:svg="http://www.w3.org/2000/svg" id="svg5" width="775mm" height="128mm" version="1.1" viewBox="0 0 775 128"><defs id="defs2"><rect id="rect115" width="1088.379" height="394.892" x="36.404" y="59.126"/></defs><g id="layer1" style="display:inline"><text xml:space="preserve" style="font-size:127px;display:inline;fill:#000;stroke-width:.264583" id="text175" x="-1.283" y="110.611"><tspan id="tspan173" style="font-style:normal;font-variant:normal;font-weight:400;font-stretch:normal;font-family:Baumans;-inkscape-font-specification:Baumans;stroke-width:.264583" x="-1.283" y="110.611">Ga<tspan style="fill:#000;fill-opacity:0" id="tspan14372">u</tspan>ssianB<tspan style="fill:#000;fill-opacity:0" id="tspan14492">a</tspan>sis</tspan></text></g><g id="layer2" style="display:inline"><g id="gaus2" transform="translate(3.0997646,0.07423476)" style="display:inline"><path id="path784-0" style="fill:#ba0c2f;fill-opacity:0;stroke:#cb3c33;stroke-width:4.48724;stroke-linejoin:bevel;stroke-dasharray:none;stroke-opacity:1" d="m 589.99518,32.003087 c -4.34738,-0.0093 -7.67912,2.769043 -10.33106,7.446345 -6.52251,11.503917 -8.93278,34.495395 -12.22765,55.754657 -4.53467,29.258741 -25.30532,26.464551 -25.30532,26.464551"/><path id="path4825" style="fill:#ba0c2f;fill-opacity:0;stroke:#cb3c33;stroke-width:4.48724;stroke-linejoin:bevel;stroke-dasharray:none;stroke-opacity:1" d="m 589.86674,31.988241 c 15.03985,-0.032 17.9242,33.298076 22.55871,63.201002 4.53467,29.258737 25.30532,26.464547 25.30532,26.464547"/></g><g id="gaus2-6" transform="matrix(1.0021373,0,0,0.76755115,2.2715865,29.712079)" style="display:inline"><path id="path784-0-9" style="fill:#ba0c2f;fill-opacity:0;stroke:#389826;stroke-width:4.48724;stroke-linejoin:bevel;stroke-dasharray:none;stroke-opacity:1" d="m 589.99518,32.003087 c -4.34738,-0.0093 -7.67912,2.769043 -10.33106,7.446345 -6.52251,11.503917 -8.93278,34.495395 -12.22765,55.754657 -4.53467,29.258741 -25.30532,26.464551 -25.30532,26.464551"/><path id="path4825-3" style="fill:#ba0c2f;fill-opacity:0;stroke:#389826;stroke-width:4.48724;stroke-linejoin:bevel;stroke-dasharray:none;stroke-opacity:1" d="m 589.86674,31.988241 c 15.03985,-0.032 17.9242,33.298076 22.55871,63.201002 4.53467,29.258737 25.30532,26.464547 25.30532,26.464547"/></g><g id="gaus2-6-0" transform="matrix(1.0053739,0,0,0.47383182,0.37588,65.957785)" style="display:inline"><path id="path784-0-9-8" style="fill:#ba0c2f;fill-opacity:0;stroke:#9558b2;stroke-width:4.48724;stroke-linejoin:bevel;stroke-dasharray:none;stroke-opacity:1" d="m 589.99518,32.003087 c -4.34738,-0.0093 -7.67912,2.769043 -10.33106,7.446345 -6.52251,11.503917 -8.93278,34.495395 -12.22765,55.754657 -4.53467,29.258741 -25.30532,26.464551 -25.30532,26.464551"/><path id="path4825-3-3" style="fill:#ba0c2f;fill-opacity:0;stroke:#9558b2;stroke-width:4.48724;stroke-linejoin:bevel;stroke-dasharray:none;stroke-opacity:1" d="m 589.86674,31.988241 c 15.03985,-0.032 17.9242,33.298076 22.55871,63.201002 4.53467,29.258737 25.30532,26.464547 25.30532,26.464547"/></g><g id="gaus1" transform="rotate(180,381.9174,77.262194)" style="display:inline"><path id="path784-0-3" style="fill:#389826;fill-opacity:0;stroke:#ba0c2f;stroke-width:4.48724;stroke-linejoin:bevel;stroke-dasharray:none;stroke-opacity:1" d="m 589.99518,32.003087 c -4.34738,-0.0093 -7.67912,2.769043 -10.33106,7.446345 -6.52251,11.503917 -8.93278,34.495395 -12.22765,55.754657 -4.53467,29.258741 -25.30532,26.464551 -25.30532,26.464551"/><path id="path4825-9" style="fill:#ba0c2f;fill-opacity:0;stroke:#ba0c2f;stroke-width:4.48724;stroke-linejoin:bevel;stroke-dasharray:none;stroke-opacity:1" d="m 589.86674,31.988241 c 15.03985,-0.032 17.9242,33.298076 22.55871,63.201002 4.53467,29.258737 25.30532,26.464547 25.30532,26.464547"/></g></g></svg>